<?xml version="1.0" encoding="utf-8"?>
<!DOCTYPE svg PUBLIC "-//W3C//DTD SVG 20010904//EN" "http://www.w3.org/TR/2001/REC-SVG-20010904/DTD/svg10.dtd">
<svg version="1.0" xmlns="http://www.w3.org/2000/svg" width="600pt" height="475pt" viewBox="0 0 600 475" style="" preserveAspectRatio="xMidYMid meet">
<g fill="#2F318BFF" stroke="#2F318BFF">
<path d="M 494.500 133.375 C 491.200 134.549 488.050 135.797 487.500 136.148 C 486.950 136.499 484.925 137.247 483.000 137.811 C 478.856 139.024 468.339 142.706 465.500 143.938 C 464.400 144.416 455.400 147.391 445.500 150.551 C 435.600 153.711 423.000 157.754 417.500 159.535 C 412.000 161.316 402.100 164.443 395.500 166.483 C 388.900 168.524 380.350 171.230 376.500 172.497 C 372.650 173.764 364.100 176.478 357.500 178.528 C 350.900 180.579 343.025 183.136 340.000 184.209 C 336.975 185.283 333.150 186.538 331.500 186.998 C 325.007 188.809 314.978 192.083 304.000 195.976 C 297.675 198.219 290.475 200.739 288.000 201.577 C 285.525 202.415 282.600 203.474 281.500 203.931 C 278.752 205.071 272.649 207.395 265.500 210.023 C 258.146 212.727 246.048 217.566 240.000 220.223 C 237.525 221.310 234.600 222.560 233.500 223.002 C 227.128 225.558 200.291 239.156 193.500 243.269 C 189.100 245.934 184.600 248.650 183.500 249.305 C 182.400 249.959 180.068 251.509 178.317 252.747 C 176.566 253.986 174.836 255.000 174.473 255.000 C 174.109 255.000 171.267 256.917 168.156 259.259 C 165.045 261.602 161.204 264.351 159.620 265.368 C 158.035 266.385 155.560 268.240 154.120 269.491 C 152.679 270.742 149.060 273.730 146.077 276.132 C 141.773 279.599 129.342 292.875 125.112 298.523 C 117.546 308.625 113.579 316.302 109.363 329.000 C 106.773 336.802 106.545 338.690 106.593 352.000 C 106.643 366.110 107.284 370.242 111.167 381.500 C 118.669 403.247 131.116 422.266 150.437 441.500 C 165.622 456.617 171.003 461.276 179.816 466.937 C 196.996 477.972 208.344 475.901 215.538 460.417 C 218.453 454.142 218.918 452.425 221.337 439.000 C 224.370 422.172 225.294 409.947 226.099 376.000 C 226.860 343.937 227.367 336.543 229.802 322.000 C 230.797 316.063 234.363 302.360 236.179 297.500 C 240.713 285.365 242.960 281.367 248.500 275.572 C 253.694 270.140 257.537 268.615 263.275 269.712 C 266.949 270.415 274.316 277.082 277.283 282.390 C 281.932 290.709 287.253 308.505 288.976 321.500 C 291.639 341.576 293.000 354.654 293.000 360.150 C 293.000 363.432 293.434 370.253 293.964 375.308 C 294.494 380.364 295.389 390.125 295.953 397.000 C 300.109 447.641 300.598 451.164 304.571 459.090 C 311.812 473.536 326.828 475.794 345.195 465.201 C 357.582 458.057 372.862 442.474 384.615 425.000 C 385.540 423.625 387.518 420.700 389.010 418.500 C 395.246 409.305 413.000 373.787 413.000 370.506 C 413.000 369.743 413.450 368.840 414.000 368.500 C 414.550 368.160 415.000 367.189 415.000 366.342 C 415.000 365.495 415.638 363.384 416.418 361.651 C 417.197 359.918 418.824 355.575 420.032 352.000 C 421.240 348.425 422.830 344.150 423.564 342.500 C 424.932 339.426 430.541 322.880 432.039 317.500 C 434.979 306.943 438.967 290.148 438.982 288.264 C 438.992 287.035 439.432 284.110 439.960 281.764 C 441.394 275.401 444.068 257.291 447.014 234.000 C 448.783 220.011 453.762 198.175 457.503 188.000 C 464.976 167.670 479.516 148.726 499.525 133.250 C 503.000 130.562 502.362 130.578 494.500 133.375 M 408.000 185.092 C 403.875 186.728 397.350 189.161 393.500 190.499 C 389.650 191.837 382.000 194.578 376.500 196.590 C 371.000 198.601 362.225 201.751 357.000 203.588 C 351.775 205.425 346.719 207.395 345.764 207.964 C 344.809 208.534 343.578 209.000 343.030 209.000 C 342.088 209.000 300.770 224.073 296.500 225.974 C 294.197 227.000 287.434 229.832 284.500 231.000 C 268.465 237.382 240.444 251.116 224.589 260.362 C 217.940 264.240 212.275 267.662 212.000 267.966 C 211.725 268.270 209.475 269.825 207.000 271.421 C 193.130 280.365 173.433 298.314 165.456 309.276 C 153.345 325.921 148.335 343.287 151.482 357.715 C 152.939 364.396 159.031 379.470 160.892 381.000 C 161.226 381.275 163.268 383.750 165.429 386.500 C 167.591 389.250 170.966 392.954 172.929 394.731 C 174.893 396.508 176.205 397.970 175.845 397.981 C 175.110 398.002 166.779 393.782 166.000 392.994 C 165.725 392.716 163.776 391.203 161.670 389.632 C 154.447 384.246 148.993 377.882 145.273 370.500 C 142.709 365.413 139.996 354.543 140.015 349.436 C 140.036 343.737 142.681 332.736 146.010 324.500 C 146.455 323.400 147.082 321.825 147.403 321.000 C 147.724 320.175 148.553 318.604 149.244 317.509 C 149.935 316.414 152.052 313.039 153.948 310.009 C 163.299 295.070 179.865 278.493 199.575 264.351 C 203.880 261.262 208.633 258.007 210.136 257.117 C 233.361 243.379 242.210 238.799 263.500 229.493 C 270.169 226.578 288.107 220.065 307.500 213.518 C 314.650 211.104 325.675 207.347 332.000 205.169 C 359.451 195.717 406.501 182.367 413.000 182.186 C 414.428 182.147 412.285 183.392 408.000 185.092 "/></g>
<g fill="#F08519FF" stroke="#F08519FF">
<path d="M 132.000 1.443 C 106.708 8.547 85.170 33.697 75.001 68.000 C 69.756 85.696 68.761 90.123 67.026 103.500 C 63.243 132.671 62.373 151.377 63.885 171.000 C 66.101 199.747 68.419 221.753 69.328 222.661 C 69.811 223.144 75.790 220.263 77.000 218.963 C 78.156 217.722 94.148 208.000 95.033 208.000 C 95.565 208.000 96.000 207.550 96.000 207.000 C 96.000 206.450 96.414 206.000 96.921 206.000 C 97.427 206.000 101.365 203.826 105.671 201.169 C 109.977 198.511 116.650 194.630 120.500 192.544 C 124.350 190.458 127.950 188.409 128.500 187.991 C 132.397 185.031 184.405 159.000 186.422 159.000 C 186.752 159.000 188.929 158.131 191.261 157.069 C 195.249 155.253 210.348 149.188 219.710 145.643 C 222.025 144.766 226.750 143.122 230.210 141.990 C 233.669 140.857 237.400 139.552 238.500 139.089 C 240.239 138.356 246.057 136.535 261.317 131.948 C 268.270 129.858 266.100 132.112 258.250 135.134 C 253.215 137.072 251.257 137.897 246.000 140.294 C 242.975 141.673 238.700 143.584 236.500 144.541 C 218.697 152.285 184.192 169.526 169.500 178.018 C 165.650 180.244 160.925 182.837 159.000 183.782 C 157.075 184.727 155.275 185.725 155.000 186.000 C 154.184 186.816 150.741 188.826 147.000 190.670 C 145.075 191.619 143.275 192.644 143.000 192.948 C 142.276 193.748 138.986 195.761 135.250 197.691 C 133.463 198.615 132.000 199.737 132.000 200.185 C 132.000 200.633 131.532 201.000 130.960 201.000 C 130.387 201.000 128.700 201.840 127.210 202.866 C 125.719 203.893 120.450 207.380 115.500 210.616 C 110.550 213.852 106.350 216.838 106.167 217.250 C 105.983 217.663 105.196 218.000 104.417 218.000 C 103.638 218.000 103.000 218.378 103.000 218.839 C 103.000 219.301 101.988 220.159 100.750 220.745 C 99.513 221.332 97.600 222.528 96.500 223.404 C 95.400 224.279 91.309 227.359 87.408 230.248 C 74.928 239.490 68.513 244.345 68.000 244.936 C 67.725 245.252 65.700 246.843 63.500 248.469 C 61.300 250.096 58.994 251.894 58.376 252.464 C 57.758 253.034 55.092 255.300 52.451 257.500 C 33.916 272.940 -0.990 306.343 0.183 307.516 C 0.687 308.020 12.264 301.059 16.499 297.707 C 17.049 297.271 19.975 295.378 23.000 293.500 C 26.025 291.622 28.950 289.725 29.500 289.285 C 30.927 288.142 36.146 284.815 38.500 283.547 C 42.925 281.163 55.532 273.526 56.000 272.946 C 56.438 272.403 88.547 253.544 98.000 248.277 C 120.454 235.766 138.558 226.178 159.000 215.969 C 181.983 204.492 204.844 193.711 223.500 185.552 C 225.700 184.589 229.525 182.906 232.000 181.811 C 234.475 180.716 237.625 179.347 239.000 178.770 C 245.017 176.242 247.674 175.140 250.250 174.105 C 253.082 172.967 256.274 171.650 261.500 169.465 C 265.376 167.844 267.523 166.991 279.000 162.510 C 296.278 155.765 300.428 154.188 308.000 151.490 C 312.125 150.021 320.450 147.031 326.500 144.848 C 332.550 142.664 340.200 140.056 343.500 139.051 C 346.800 138.046 351.525 136.475 354.000 135.559 C 357.971 134.090 376.218 128.391 384.500 126.033 C 386.150 125.563 391.325 123.990 396.000 122.537 C 404.742 119.820 416.824 116.461 423.000 115.031 C 424.925 114.586 427.850 113.774 429.500 113.227 C 435.055 111.387 454.464 106.401 469.500 102.951 C 472.250 102.320 476.075 101.438 478.000 100.992 C 488.841 98.479 496.006 96.854 500.000 96.000 C 502.475 95.471 507.650 94.333 511.500 93.472 C 515.350 92.611 520.863 91.477 523.750 90.953 C 526.638 90.429 531.588 89.508 534.750 88.907 C 546.124 86.746 549.000 86.325 549.000 86.820 C 549.000 87.097 546.502 92.253 543.448 98.277 C 540.395 104.301 538.090 109.423 538.326 109.659 C 538.561 109.895 541.397 108.494 544.627 106.546 C 547.857 104.599 551.063 103.004 551.750 103.003 C 552.438 103.001 553.000 102.550 553.000 102.000 C 553.000 101.450 553.453 101.000 554.006 101.000 C 554.560 101.000 559.768 98.300 565.581 95.000 C 571.394 91.700 576.334 89.000 576.560 89.000 C 576.785 89.000 579.114 87.702 581.735 86.116 C 584.356 84.530 589.412 81.644 592.971 79.704 C 596.530 77.763 599.599 75.703 599.792 75.125 C 599.984 74.547 598.873 73.805 597.321 73.476 C 593.364 72.637 566.629 66.210 560.000 64.504 C 554.497 63.087 539.928 59.651 534.750 58.548 C 533.238 58.226 532.000 58.283 532.000 58.676 C 532.000 59.068 535.263 62.442 539.250 66.174 C 545.420 71.947 546.336 73.222 545.397 74.729 C 544.598 76.011 542.804 76.564 538.897 76.732 C 535.929 76.859 526.525 77.622 518.000 78.427 C 509.475 79.231 496.200 80.373 488.500 80.963 C 480.800 81.553 468.747 82.552 461.716 83.184 C 453.989 83.878 448.603 83.970 448.100 83.416 C 447.642 82.912 446.269 78.225 445.048 73.000 C 443.827 67.775 442.207 61.700 441.447 59.500 C 436.396 44.871 434.959 41.611 430.316 34.231 C 428.492 31.332 427.000 28.624 427.000 28.212 C 427.000 27.800 423.061 23.646 418.248 18.981 C 406.159 7.267 396.742 2.813 380.443 1.097 C 364.124 -0.620 343.279 3.872 318.500 14.445 C 307.448 19.160 288.956 23.528 273.301 25.120 C 260.251 26.448 241.655 25.312 230.000 22.477 C 226.975 21.741 222.250 20.601 219.500 19.945 C 211.208 17.967 196.485 12.751 187.574 8.635 C 182.472 6.279 173.031 3.060 165.384 1.071 C 159.829 -0.374 137.587 -0.127 132.000 1.443 M 153.500 14.459 C 169.326 16.963 181.953 21.582 204.993 33.295 C 231.482 46.762 249.256 52.985 261.250 52.994 C 267.672 52.999 269.343 52.657 271.000 51.000 C 273.215 48.785 273.729 42.048 272.025 37.565 C 270.680 34.029 272.226 34.284 276.336 38.275 C 281.181 42.980 282.724 47.777 281.036 52.892 C 276.328 67.157 257.290 67.538 223.500 54.041 C 222.400 53.601 210.250 47.733 196.500 41.000 C 166.605 26.361 168.922 27.387 161.500 25.498 C 145.959 21.543 136.774 21.976 126.406 27.154 C 115.855 32.423 105.314 48.538 99.501 68.283 C 98.008 73.356 96.494 76.805 95.917 76.449 C 95.368 76.109 95.152 75.082 95.437 74.166 C 95.722 73.250 96.398 69.350 96.939 65.500 C 98.130 57.019 103.205 41.161 106.700 35.000 C 112.752 24.328 122.980 16.755 134.500 14.415 C 142.437 12.802 143.033 12.804 153.500 14.459 M 149.633 30.772 C 156.920 36.675 154.270 42.624 135.762 61.915 C 120.734 77.578 107.320 97.703 101.047 114.000 C 100.306 115.925 99.121 118.850 98.413 120.500 C 97.705 122.150 95.135 129.575 92.702 137.000 C 88.733 149.115 87.491 153.191 85.468 160.750 C 84.518 164.297 83.000 163.376 82.998 159.250 C 82.996 154.925 86.709 131.615 89.171 120.500 C 90.489 114.551 96.713 93.347 97.977 90.500 C 98.465 89.400 99.621 86.700 100.545 84.500 C 104.661 74.703 115.097 54.714 116.991 53.000 C 117.295 52.725 119.451 49.537 121.782 45.915 C 127.005 37.799 128.940 35.961 136.352 32.071 C 142.956 28.605 146.526 28.256 149.633 30.772 M 324.618 91.785 C 325.759 97.880 327.709 101.547 330.481 102.809 C 331.918 103.464 333.494 104.000 333.982 104.000 C 334.470 104.000 336.121 104.476 337.651 105.057 C 341.025 106.340 339.956 107.248 332.480 109.446 C 327.160 111.010 326.903 111.419 324.415 122.250 C 324.067 123.763 323.469 125.000 323.084 125.000 C 322.700 125.000 321.581 121.898 320.598 118.107 L 318.810 111.214 313.655 109.583 C 304.410 106.657 304.438 106.529 315.130 102.913 C 318.416 101.801 318.913 101.133 320.380 95.858 C 321.271 92.653 322.000 89.322 322.000 88.456 C 322.000 85.581 323.911 88.011 324.618 91.785 M 372.348 79.032 C 372.949 82.243 373.469 82.700 378.071 84.058 C 380.854 84.880 383.130 85.977 383.127 86.496 C 383.125 87.015 380.855 88.071 378.084 88.842 C 373.448 90.131 372.991 90.534 372.367 93.872 C 371.993 95.867 371.153 98.776 370.498 100.336 L 369.308 103.172 368.047 98.336 C 367.354 95.676 366.610 92.811 366.395 91.970 C 366.181 91.128 363.764 89.778 361.025 88.970 C 358.286 88.161 356.007 87.063 355.961 86.530 C 355.915 85.996 358.100 84.942 360.816 84.186 L 365.754 82.812 367.519 76.291 C 369.268 69.830 369.295 69.797 370.486 72.635 C 371.147 74.211 371.985 77.089 372.348 79.032 M 408.705 64.883 C 409.410 67.653 410.368 68.580 413.981 69.992 C 417.903 71.526 418.178 71.830 416.447 72.721 C 415.376 73.272 413.321 74.004 411.880 74.348 C 409.759 74.854 409.139 75.726 408.627 78.929 C 407.736 84.506 406.456 84.702 404.996 79.486 C 403.883 75.510 403.313 74.892 399.913 73.977 C 394.507 72.521 394.351 71.412 399.346 69.938 C 403.298 68.771 403.781 68.267 404.877 64.169 C 406.188 59.270 407.330 59.483 408.705 64.883 "/></g>
</svg>
